<?xml version="1.0" standalone="no"?>
<!DOCTYPE svg PUBLIC "-//W3C//DTD SVG 20010904//EN"
 "http://www.w3.org/TR/2001/REC-SVG-20010904/DTD/svg10.dtd">
<svg version="1.0" xmlns="http://www.w3.org/2000/svg"
 width="500.000000pt" height="500.000000pt" viewBox="0 0 500.000000 500.000000"
 preserveAspectRatio="xMidYMid meet">

<g transform="translate(0.000000,500.000000) scale(0.100000,-0.100000)"
fill="#000000" stroke="none">
<path d="M2465 4895 c-78 -14 -113 -24 -368 -101 -234 -71 -354 -94 -513 -101
-98 -4 -159 -1 -244 11 -137 22 -174 17 -196 -26 -15 -29 -15 -35 -1 -62 9
-17 25 -89 36 -161 12 -71 33 -191 47 -265 l25 -135 -34 -60 c-19 -33 -99
-165 -178 -292 -139 -225 -145 -233 -176 -233 -22 0 -38 -8 -52 -26 -17 -22
-20 -39 -19 -132 1 -122 10 -142 64 -142 l33 0 40 -127 c50 -160 79 -269 135
-503 117 -490 144 -714 201 -1680 19 -326 41 -576 57 -638 18 -77 34 -100 76
-111 114 -32 955 8 1487 70 285 33 405 42 530 36 92 -4 126 -2 147 9 15 8 28
19 28 24 0 9 86 103 220 240 36 36 99 88 140 115 319 206 373 251 373 306 0
37 -27 63 -59 55 -19 -5 -23 2 -39 82 -20 94 -33 128 -124 335 -148 335 -196
548 -321 1432 -161 1138 -162 1141 -238 1223 -36 39 -73 48 -123 32 -35 -12
-48 -10 -130 14 -49 15 -140 37 -200 50 -60 12 -113 27 -118 32 -9 10 -98 221
-129 305 -11 31 -30 112 -42 180 -26 145 -51 219 -81 237 -30 19 -168 22 -254
7z m167 -160 c-11 -61 96 -445 164 -587 10 -21 15 -40 13 -43 -3 -2 -82 -12
-175 -20 -221 -20 -343 -33 -429 -45 -103 -15 -400 -40 -477 -40 -83 0 -149
13 -260 52 l-86 30 -7 72 c-9 100 -33 251 -51 317 -7 31 -14 62 -14 67 0 8 59
11 178 10 365 -1 1059 121 1122 197 19 22 28 18 22 -10z m521 -804 c43 -10 80
-21 83 -23 2 -3 -33 -37 -80 -77 l-85 -71 -3 95 c-2 52 -1 95 2 95 3 -1 40 -9
83 -19z m-1576 -72 c124 -13 470 0 896 32 142 10 296 19 342 19 l83 0 8 -77
c11 -115 9 -210 -6 -228 -17 -21 -50 -19 -112 7 -49 20 -68 22 -260 21 -390
-3 -1061 -61 -1309 -114 -27 -6 -53 -9 -58 -7 -5 2 23 58 63 125 39 67 90 156
114 197 l43 75 44 -20 c25 -11 89 -24 152 -30z m1897 -41 c4 -29 20 -143 36
-253 16 -110 40 -292 55 -405 14 -113 35 -263 45 -335 11 -71 29 -197 40 -280
11 -82 23 -168 26 -190 l5 -40 -203 -126 c-112 -70 -204 -125 -206 -124 -3 3
-30 174 -42 275 -5 41 -16 125 -25 185 -35 259 -57 422 -81 610 -33 262 -50
370 -64 395 -17 31 -7 45 38 58 50 15 113 65 217 172 79 81 132 123 145 115 4
-3 10 -28 14 -57z m-520 -400 c2 -35 12 -166 21 -293 9 -126 20 -266 25 -310
5 -44 14 -127 20 -185 13 -146 59 -566 66 -616 l6 -41 -109 -58 c-59 -32 -124
-68 -143 -80 -19 -12 -64 -38 -100 -57 -78 -43 -349 -199 -477 -275 l-92 -55
-103 47 c-235 107 -717 372 -728 400 -4 11 -11 56 -14 100 -7 83 -28 232 -46
323 -30 157 -155 626 -218 817 -27 83 -45 153 -40 156 4 3 43 13 86 23 42 10
133 30 202 46 292 67 384 75 970 91 233 6 463 14 510 19 47 4 102 8 122 9 l36
1 6 -62z m751 -1250 c3 -13 10 -54 15 -93 21 -139 82 -387 126 -512 25 -70 57
-162 71 -203 54 -159 106 -288 150 -373 25 -48 44 -89 42 -91 -120 -84 -297
-238 -479 -413 -52 -50 -96 -90 -98 -89 -3 4 -45 223 -71 371 -23 132 -66 412
-106 690 -14 99 -35 237 -46 306 -28 183 -31 170 54 212 89 44 281 170 307
202 18 21 29 19 35 -7z m-581 -469 c10 -94 16 -172 14 -174 -1 -1 -61 -38
-133 -80 -148 -89 -431 -275 -517 -341 -32 -24 -62 -44 -67 -44 -5 0 -17 24
-27 52 -9 29 -37 98 -61 153 -25 55 -47 106 -50 113 -3 7 10 18 33 28 88 37
714 410 753 449 8 8 20 15 26 15 6 0 18 -70 29 -171z m-1689 -9 c143 -95 451
-258 518 -275 36 -9 35 -21 -13 -188 -22 -77 -43 -156 -46 -177 l-6 -39 -37
23 c-66 42 -235 169 -410 309 -100 80 -99 77 -100 280 -1 100 2 127 12 121 6
-4 44 -28 82 -54z m1750 -470 c43 -326 94 -593 139 -728 l33 -100 -126 -11
c-69 -7 -182 -18 -251 -26 -164 -19 -403 -43 -510 -50 -47 -3 -104 -8 -126
-11 l-41 -6 -1 74 c0 40 -6 141 -12 223 -23 321 -30 438 -26 442 2 2 9 -11 16
-29 30 -82 47 -103 85 -106 56 -5 186 72 479 282 92 66 187 134 210 150 22 16
55 39 71 52 l30 24 7 -28 c3 -15 14 -83 23 -152z m-1027 125 c2 -2 -2 -23 -10
-46 -21 -73 -12 -648 13 -819 11 -80 29 -152 40 -165 20 -21 8 -35 -30 -35
l-39 0 -11 77 c-10 68 -15 193 -34 823 -2 69 0 137 5 152 8 24 14 27 36 22 15
-4 28 -8 30 -9z m-734 -153 c87 -82 328 -270 370 -287 19 -8 60 -15 90 -15 44
0 59 5 76 22 l20 22 0 -105 c0 -147 18 -404 33 -487 l14 -70 -166 -6 c-91 -4
-200 -11 -242 -17 -90 -11 -117 -4 -152 43 -63 85 -95 299 -113 776 -4 100 -3
182 1 182 5 0 36 -26 69 -58z"/>
<path d="M1451 3248 c-11 -24 -24 -90 -30 -148 -7 -58 -14 -123 -16 -145 -7
-55 28 -101 69 -91 14 3 32 18 38 31 l11 24 29 -24 c47 -40 107 -28 132 26 5
11 7 11 12 1 17 -37 58 -72 84 -72 43 0 54 21 47 93 -8 82 -61 249 -87 272
-28 25 -79 24 -101 -3 -9 -12 -19 -22 -21 -22 -2 0 -11 15 -21 33 -21 39 -64
67 -102 67 -21 0 -29 -8 -44 -42z"/>
<path d="M2365 3267 c-19 -29 -45 -198 -45 -292 0 -108 41 -147 95 -89 l24 26
27 -21 c39 -30 80 -27 111 8 l26 29 21 -30 c30 -44 49 -54 83 -42 25 8 28 15
31 58 4 60 -52 258 -83 294 -28 33 -81 35 -106 4 -22 -28 -24 -28 -38 6 -14
34 -69 72 -104 72 -17 0 -32 -9 -42 -23z"/>
<path d="M1547 2791 c-85 -56 -97 -175 -27 -255 90 -102 246 -32 245 108 -2
124 -126 208 -218 147z"/>
<path d="M2447 2783 c-42 -32 -70 -104 -60 -156 32 -172 239 -190 283 -26 39
142 -113 265 -223 182z"/>
<path d="M1904 2486 c-16 -12 -19 -27 -19 -84 0 -63 3 -74 37 -124 100 -152
331 -140 427 22 25 42 27 86 5 140 -37 91 -134 49 -134 -58 0 -38 -40 -96 -69
-100 -32 -5 -63 27 -102 106 -18 37 -42 77 -53 90 -22 25 -63 29 -92 8z"/>
<path d="M3015 950 c-11 -4 -99 -20 -195 -34 -132 -21 -188 -34 -230 -54 -54
-27 -55 -29 -58 -74 -5 -78 57 -287 103 -344 22 -28 27 -29 97 -28 52 1 102
10 178 34 123 38 166 59 199 94 21 22 23 29 13 51 -7 14 -17 89 -23 168 -6 78
-15 150 -20 159 -13 25 -41 37 -64 28z m-30 -192 c4 -40 13 -89 20 -109 8 -21
11 -40 8 -43 -4 -3 -37 -6 -75 -6 -111 0 -185 36 -264 131 -42 50 -43 63 -5
54 36 -8 187 11 237 29 69 26 71 24 79 -56z"/>
</g>
</svg>
